<?xml version="1.0" encoding="UTF-8"?>
<svg xmlns="http://www.w3.org/2000/svg" xmlns:xlink="http://www.w3.org/1999/xlink" width="128px" height="128px" viewBox="0 0 128 128" version="1.1">
<g id="surface1">
<path style=" stroke:none;fill-rule:nonzero;fill:rgb(70.19608%,42.352942%,17.254902%);fill-opacity:1;" d="M 103.375 20.691406 C 103.6875 20.921875 104.003906 21.140625 104.320312 21.363281 C 105.605469 22.261719 106.777344 23.285156 107.9375 24.34375 C 108.109375 24.5 108.285156 24.65625 108.464844 24.808594 C 109.179688 25.421875 109.84375 26.074219 110.507812 26.742188 C 110.667969 26.902344 110.667969 26.902344 110.832031 27.066406 C 111.457031 27.691406 112.054688 28.328125 112.625 29 C 112.695312 29.078125 112.761719 29.160156 112.832031 29.242188 C 119.414062 36.992188 123.273438 46.890625 123.28125 57.085938 C 123.28125 57.257812 123.28125 57.257812 123.28125 57.429688 C 123.28125 59.269531 123.195312 61.0625 122.875 62.875 C 122.855469 62.996094 122.832031 63.121094 122.808594 63.246094 C 121.714844 69.308594 119.136719 74.921875 115.5 79.875 C 115.402344 80.007812 115.402344 80.007812 115.304688 80.140625 C 114.628906 81.070312 113.945312 81.972656 113.15625 82.8125 C 112.890625 83.109375 112.648438 83.410156 112.402344 83.722656 C 111.671875 84.621094 110.855469 85.433594 110.03125 86.25 C 109.765625 86.515625 109.5 86.78125 109.238281 87.046875 C 108.410156 87.875 107.582031 88.675781 106.65625 89.402344 C 106.375 89.625 106.109375 89.863281 105.84375 90.109375 C 105.347656 90.558594 104.820312 90.957031 104.28125 91.351562 C 104.203125 91.410156 104.121094 91.46875 104.039062 91.527344 C 103.410156 91.984375 103.410156 91.984375 103.054688 92.140625 C 102.707031 92.355469 102.707031 92.355469 102.671875 92.777344 C 102.667969 92.949219 102.671875 93.117188 102.671875 93.289062 C 102.671875 93.429688 102.671875 93.429688 102.671875 93.570312 C 102.667969 93.886719 102.671875 94.203125 102.675781 94.515625 C 102.675781 94.742188 102.675781 94.96875 102.675781 95.191406 C 102.671875 95.679688 102.671875 96.164062 102.675781 96.652344 C 102.679688 97.417969 102.679688 98.1875 102.675781 98.957031 C 102.675781 100.449219 102.675781 101.941406 102.679688 103.433594 C 102.683594 105.335938 102.683594 107.234375 102.679688 109.132812 C 102.679688 109.894531 102.679688 110.660156 102.683594 111.421875 C 102.683594 111.898438 102.683594 112.375 102.683594 112.851562 C 102.683594 113.070312 102.683594 113.289062 102.6875 113.511719 C 102.6875 113.8125 102.6875 114.113281 102.6875 114.414062 C 102.6875 114.5 102.6875 114.589844 102.691406 114.679688 C 102.683594 115.300781 102.523438 115.652344 102.125 116.125 C 101.621094 116.539062 101.148438 116.554688 100.519531 116.550781 C 100.421875 116.550781 100.324219 116.550781 100.222656 116.550781 C 99.894531 116.554688 99.566406 116.554688 99.238281 116.550781 C 99.003906 116.554688 98.765625 116.554688 98.53125 116.554688 C 97.894531 116.558594 97.253906 116.558594 96.613281 116.558594 C 96.082031 116.558594 95.546875 116.558594 95.015625 116.5625 C 93.757812 116.5625 92.5 116.5625 91.238281 116.5625 C 89.941406 116.5625 88.644531 116.566406 87.34375 116.570312 C 86.230469 116.574219 85.117188 116.574219 84 116.574219 C 83.335938 116.574219 82.671875 116.574219 82.003906 116.578125 C 81.378906 116.582031 80.753906 116.582031 80.128906 116.578125 C 79.898438 116.578125 79.667969 116.578125 79.4375 116.578125 C 79.125 116.582031 78.8125 116.582031 78.496094 116.578125 C 78.40625 116.578125 78.316406 116.582031 78.222656 116.582031 C 77.519531 116.570312 77.230469 116.347656 76.75 115.875 C 76.6875 115.917969 76.621094 115.964844 76.554688 116.007812 C 75.5 116.640625 74.453125 116.585938 73.269531 116.578125 C 73.042969 116.578125 72.820312 116.578125 72.59375 116.578125 C 71.988281 116.582031 71.382812 116.578125 70.773438 116.574219 C 70.140625 116.574219 69.503906 116.574219 68.867188 116.574219 C 67.800781 116.574219 66.734375 116.570312 65.667969 116.566406 C 64.433594 116.5625 63.199219 116.5625 61.96875 116.5625 C 60.78125 116.5625 59.59375 116.5625 58.402344 116.558594 C 57.898438 116.558594 57.394531 116.558594 56.890625 116.558594 C 56.296875 116.558594 55.699219 116.558594 55.105469 116.554688 C 54.890625 116.554688 54.671875 116.550781 54.453125 116.554688 C 54.15625 116.554688 53.859375 116.550781 53.558594 116.550781 C 53.472656 116.550781 53.386719 116.550781 53.296875 116.550781 C 52.761719 116.542969 52.425781 116.453125 52 116.125 C 51.621094 115.554688 51.671875 115.042969 51.75 114.375 C 52.578125 110.929688 55.539062 108.238281 58.4375 106.4375 C 60.03125 105.472656 61.714844 104.675781 63.460938 104.023438 C 63.546875 103.992188 63.628906 103.960938 63.714844 103.925781 C 64.753906 103.554688 65.808594 103.296875 66.875 103 C 66.917969 98.917969 66.957031 94.832031 67 90.625 C 66.503906 90.5 66.011719 90.378906 65.5 90.25 C 64.9375 90.078125 64.386719 89.878906 63.835938 89.679688 C 63.609375 89.597656 63.609375 89.597656 63.375 89.515625 C 61.230469 88.730469 59.144531 87.816406 57.125 86.75 C 56.984375 86.675781 56.984375 86.675781 56.839844 86.601562 C 54.066406 85.148438 51.523438 83.382812 49.125 81.375 C 49.058594 81.320312 48.996094 81.265625 48.925781 81.210938 C 48.019531 80.460938 47.15625 79.675781 46.320312 78.84375 C 46.238281 78.761719 46.15625 78.679688 46.074219 78.597656 C 45.527344 78.042969 45.007812 77.464844 44.5 76.875 C 44.335938 76.691406 44.335938 76.691406 44.171875 76.5 C 40.648438 72.425781 35.875 65.648438 35.875 60 C 35.785156 60.003906 35.699219 60.007812 35.605469 60.011719 C 33.476562 60.070312 31.476562 59.605469 29.46875 58.9375 C 29.246094 58.863281 29.246094 58.863281 29 58.875 C 28.820312 59.042969 28.820312 59.042969 28.632812 59.273438 C 28.554688 59.367188 28.476562 59.457031 28.394531 59.554688 C 28.304688 59.660156 28.21875 59.765625 28.125 59.875 C 28.027344 59.988281 27.929688 60.101562 27.828125 60.214844 C 23.628906 65.039062 20.238281 70.6875 17.125 76.25 C 17.03125 76.414062 17.03125 76.414062 16.9375 76.585938 C 14.917969 80.207031 13.121094 83.933594 11.472656 87.738281 C 11.273438 88.199219 11.066406 88.660156 10.863281 89.121094 C 9.515625 92.164062 8.378906 95.300781 7.289062 98.445312 C 7.25 98.550781 7.214844 98.65625 7.175781 98.765625 C 7.003906 99.257812 6.835938 99.75 6.667969 100.246094 C 5.675781 103.140625 5.675781 103.140625 4.875 103.625 C 4.421875 103.691406 4.195312 103.664062 3.789062 103.445312 C 2.949219 102.515625 3.027344 101.1875 3 100 C 2.996094 99.882812 2.996094 99.769531 2.992188 99.648438 C 2.921875 96.011719 3.273438 92.453125 3.875 88.875 C 3.890625 88.785156 3.90625 88.691406 3.921875 88.601562 C 5.65625 78.269531 9.128906 68.035156 16.125 55.75 C 16.238281 55.5625 16.351562 55.371094 16.464844 55.183594 C 17.171875 54.027344 17.941406 52.917969 18.726562 51.8125 C 18.792969 51.714844 18.859375 51.621094 18.929688 51.519531 C 19.054688 51.347656 19.183594 51.175781 19.320312 51.007812 C 19.59375 50.667969 19.75 50.457031 19.75 50.015625 C 19.707031 49.886719 19.667969 49.757812 19.625 49.625 C 19.597656 49.542969 19.574219 49.460938 19.546875 49.378906 C 19.488281 49.191406 19.429688 49.007812 19.367188 48.824219 C 18.335938 45.757812 18.074219 42.410156 18.875 39.25 C 18.894531 39.167969 18.914062 39.085938 18.933594 39.003906 C 19.914062 34.78125 22.625 31.003906 26.257812 28.667969 C 30.441406 26.070312 35.632812 25.246094 40.429688 26.355469 C 40.855469 26.457031 41.277344 26.566406 41.703125 26.675781 C 42.171875 26.792969 42.648438 26.898438 43.125 27 C 43.191406 26.925781 43.253906 26.855469 43.324219 26.78125 C 46.011719 23.785156 46.011719 23.785156 47.222656 22.742188 C 47.535156 22.46875 47.835938 22.1875 48.140625 21.90625 C 48.867188 21.242188 49.632812 20.636719 50.414062 20.035156 C 50.605469 19.890625 50.796875 19.738281 50.984375 19.589844 C 56 15.710938 62.164062 13.160156 68.375 12 C 68.484375 11.980469 68.589844 11.957031 68.703125 11.9375 C 80.820312 9.675781 93.609375 13.433594 103.375 20.691406 Z M 76.625 92.75 C 76.625 99.640625 76.625 106.527344 76.625 113.625 C 76.707031 113.625 76.789062 113.625 76.875 113.625 C 76.941406 113.492188 77.007812 113.355469 77.078125 113.21875 C 79.5625 108.308594 84.246094 105.5625 89.335938 103.890625 C 90.546875 103.503906 91.765625 103.183594 93 102.875 C 93 99.824219 93 96.769531 93 93.625 C 91.257812 93.636719 91.257812 93.636719 89.484375 93.648438 C 87.242188 93.652344 85.007812 93.65625 82.773438 93.46875 C 82.609375 93.457031 82.445312 93.441406 82.277344 93.425781 C 80.390625 93.25 78.503906 92.984375 76.625 92.75 Z M 76.625 92.75 "/>
<path style=" stroke:none;fill-rule:nonzero;fill:rgb(49.803922%,25.490198%,4.705882%);fill-opacity:1;" d="M 49.25 53 C 49.332031 53 49.414062 53 49.5 53 C 49.535156 53.070312 49.574219 53.144531 49.609375 53.21875 C 51.261719 56.484375 53.121094 59.582031 55.5 62.375 C 55.625 62.523438 55.75 62.671875 55.875 62.820312 C 56.007812 62.976562 56.140625 63.132812 56.273438 63.289062 C 56.335938 63.359375 56.394531 63.433594 56.457031 63.507812 C 56.765625 63.867188 57.082031 64.207031 57.421875 64.535156 C 57.75 64.875 57.75 64.875 57.75 65.125 C 57.875 65.167969 57.996094 65.207031 58.125 65.25 C 58.316406 65.449219 58.316406 65.449219 58.523438 65.703125 C 58.898438 66.144531 59.296875 66.519531 59.738281 66.894531 C 60.019531 67.140625 60.277344 67.402344 60.539062 67.671875 C 61.046875 68.183594 61.582031 68.636719 62.144531 69.085938 C 62.496094 69.371094 62.84375 69.667969 63.1875 69.960938 C 66.578125 72.785156 70.390625 75.132812 74.285156 77.195312 C 74.585938 77.355469 74.882812 77.515625 75.179688 77.679688 C 76.5625 78.429688 77.984375 79.078125 79.414062 79.722656 C 79.839844 79.914062 80.265625 80.113281 80.6875 80.3125 C 82.511719 81.164062 84.339844 82.003906 86.1875 82.796875 C 91.738281 85.175781 97.566406 87.738281 102.164062 91.730469 C 102.476562 92.03125 102.476562 92.03125 102.859375 92.039062 C 102.945312 92.027344 103.035156 92.011719 103.125 92 C 103.0625 92.042969 103.003906 92.085938 102.941406 92.128906 C 102.660156 92.492188 102.699219 92.847656 102.703125 93.289062 C 102.703125 93.382812 102.703125 93.476562 102.703125 93.570312 C 102.699219 93.886719 102.703125 94.203125 102.703125 94.515625 C 102.703125 94.742188 102.703125 94.96875 102.703125 95.191406 C 102.703125 95.679688 102.703125 96.164062 102.703125 96.652344 C 102.703125 97.417969 102.703125 98.1875 102.699219 98.957031 C 102.695312 100.867188 102.695312 102.773438 102.695312 104.683594 C 102.695312 106.167969 102.695312 107.648438 102.691406 109.132812 C 102.6875 109.894531 102.6875 110.660156 102.691406 111.421875 C 102.691406 111.898438 102.691406 112.375 102.6875 112.851562 C 102.6875 113.070312 102.6875 113.289062 102.6875 113.511719 C 102.691406 113.8125 102.691406 114.113281 102.6875 114.414062 C 102.6875 114.542969 102.6875 114.542969 102.691406 114.679688 C 102.683594 115.300781 102.523438 115.652344 102.125 116.125 C 101.621094 116.539062 101.148438 116.554688 100.519531 116.550781 C 100.421875 116.550781 100.324219 116.550781 100.222656 116.550781 C 99.894531 116.554688 99.566406 116.554688 99.238281 116.550781 C 99.003906 116.554688 98.765625 116.554688 98.53125 116.554688 C 97.894531 116.558594 97.253906 116.558594 96.613281 116.558594 C 96.082031 116.558594 95.546875 116.558594 95.015625 116.5625 C 93.757812 116.5625 92.5 116.5625 91.238281 116.5625 C 89.941406 116.5625 88.644531 116.566406 87.34375 116.570312 C 86.230469 116.574219 85.117188 116.574219 84 116.574219 C 83.335938 116.574219 82.671875 116.574219 82.003906 116.578125 C 81.378906 116.582031 80.753906 116.582031 80.128906 116.578125 C 79.898438 116.578125 79.667969 116.578125 79.4375 116.578125 C 79.125 116.582031 78.8125 116.582031 78.496094 116.578125 C 78.40625 116.578125 78.316406 116.582031 78.222656 116.582031 C 77.519531 116.570312 77.230469 116.347656 76.75 115.875 C 76.6875 115.917969 76.621094 115.964844 76.554688 116.007812 C 75.5 116.640625 74.453125 116.585938 73.269531 116.578125 C 73.042969 116.578125 72.820312 116.578125 72.59375 116.578125 C 71.988281 116.582031 71.382812 116.578125 70.773438 116.574219 C 70.140625 116.574219 69.503906 116.574219 68.867188 116.574219 C 67.800781 116.574219 66.734375 116.570312 65.667969 116.566406 C 64.433594 116.5625 63.199219 116.5625 61.96875 116.5625 C 60.78125 116.5625 59.59375 116.5625 58.402344 116.558594 C 57.898438 116.558594 57.394531 116.558594 56.890625 116.558594 C 56.296875 116.558594 55.699219 116.558594 55.105469 116.554688 C 54.890625 116.554688 54.671875 116.550781 54.453125 116.554688 C 54.15625 116.554688 53.859375 116.550781 53.558594 116.550781 C 53.472656 116.550781 53.386719 116.550781 53.296875 116.550781 C 52.761719 116.542969 52.425781 116.453125 52 116.125 C 51.621094 115.554688 51.671875 115.042969 51.75 114.375 C 52.578125 110.929688 55.539062 108.238281 58.4375 106.4375 C 60.03125 105.472656 61.714844 104.675781 63.460938 104.023438 C 63.546875 103.992188 63.628906 103.960938 63.714844 103.925781 C 64.753906 103.554688 65.808594 103.296875 66.875 103 C 66.917969 98.917969 66.957031 94.832031 67 90.625 C 66.257812 90.4375 66.257812 90.4375 65.5 90.25 C 64.9375 90.078125 64.386719 89.878906 63.835938 89.679688 C 63.683594 89.625 63.53125 89.570312 63.375 89.515625 C 61.230469 88.730469 59.144531 87.816406 57.125 86.75 C 57.03125 86.699219 56.9375 86.652344 56.839844 86.601562 C 54.066406 85.148438 51.523438 83.382812 49.125 81.375 C 49.058594 81.320312 48.996094 81.265625 48.925781 81.210938 C 48.019531 80.460938 47.15625 79.675781 46.320312 78.84375 C 46.238281 78.761719 46.15625 78.679688 46.074219 78.597656 C 45.527344 78.042969 45.007812 77.464844 44.5 76.875 C 44.390625 76.75 44.28125 76.628906 44.171875 76.5 C 40.597656 72.367188 35.875 65.59375 35.875 59.875 C 35.960938 59.867188 36.042969 59.859375 36.132812 59.851562 C 41.625 59.351562 45.410156 57.308594 49.125 53.25 C 49.167969 53.167969 49.207031 53.085938 49.25 53 Z M 76.625 92.75 C 76.625 99.640625 76.625 106.527344 76.625 113.625 C 76.707031 113.625 76.789062 113.625 76.875 113.625 C 76.941406 113.492188 77.007812 113.355469 77.078125 113.21875 C 79.5625 108.308594 84.246094 105.5625 89.335938 103.890625 C 90.546875 103.503906 91.765625 103.183594 93 102.875 C 93 99.824219 93 96.769531 93 93.625 C 91.257812 93.636719 91.257812 93.636719 89.484375 93.648438 C 87.242188 93.652344 85.007812 93.65625 82.773438 93.46875 C 82.609375 93.457031 82.445312 93.441406 82.277344 93.425781 C 80.390625 93.25 78.503906 92.984375 76.625 92.75 Z M 76.625 92.75 "/>
<path style=" stroke:none;fill-rule:nonzero;fill:rgb(89.803922%,46.666667%,4.705882%);fill-opacity:1;" d="M 67 90.625 C 68.527344 90.996094 70.050781 91.367188 71.625 91.75 C 74.101562 92.246094 74.101562 92.246094 76.625 92.75 C 76.625 99.640625 76.625 106.527344 76.625 113.625 C 76.707031 113.625 76.789062 113.625 76.875 113.625 C 76.902344 113.53125 76.925781 113.433594 76.953125 113.335938 C 78.441406 109.339844 82.386719 106.714844 86.09375 105 C 87.84375 104.222656 89.660156 103.628906 91.5 103.125 C 91.636719 103.085938 91.636719 103.085938 91.777344 103.050781 C 92.203125 102.9375 92.554688 102.875 93 102.875 C 93 102.757812 93 102.644531 93 102.523438 C 92.996094 101.4375 92.996094 100.351562 92.992188 99.261719 C 92.992188 98.703125 92.992188 98.144531 92.992188 97.585938 C 92.988281 97.046875 92.988281 96.507812 92.988281 95.96875 C 92.988281 95.761719 92.988281 95.558594 92.988281 95.351562 C 92.984375 95.0625 92.984375 94.777344 92.984375 94.488281 C 92.984375 94.324219 92.984375 94.160156 92.984375 93.992188 C 93 93.625 93 93.625 93.125 93.5 C 93.410156 93.46875 93.691406 93.445312 93.976562 93.429688 C 94.160156 93.414062 94.34375 93.402344 94.527344 93.386719 C 94.625 93.378906 94.722656 93.375 94.824219 93.367188 C 97.015625 93.203125 99.175781 92.925781 101.34375 92.566406 C 101.769531 92.496094 102.195312 92.4375 102.625 92.375 C 102.636719 95.359375 102.644531 98.347656 102.652344 101.332031 C 102.652344 102.71875 102.65625 104.105469 102.664062 105.492188 C 102.667969 106.699219 102.671875 107.910156 102.671875 109.117188 C 102.671875 109.757812 102.675781 110.394531 102.679688 111.035156 C 102.679688 111.636719 102.683594 112.242188 102.679688 112.84375 C 102.683594 113.0625 102.683594 113.285156 102.683594 113.507812 C 102.6875 113.808594 102.6875 114.109375 102.683594 114.410156 C 102.6875 114.5 102.6875 114.585938 102.691406 114.675781 C 102.683594 115.296875 102.523438 115.652344 102.125 116.125 C 101.621094 116.539062 101.148438 116.554688 100.519531 116.550781 C 100.421875 116.550781 100.324219 116.550781 100.222656 116.550781 C 99.894531 116.554688 99.566406 116.554688 99.238281 116.550781 C 99.003906 116.554688 98.765625 116.554688 98.53125 116.554688 C 97.894531 116.558594 97.253906 116.558594 96.613281 116.558594 C 96.082031 116.558594 95.546875 116.558594 95.015625 116.5625 C 93.757812 116.5625 92.5 116.5625 91.238281 116.5625 C 89.941406 116.5625 88.644531 116.566406 87.34375 116.570312 C 86.230469 116.574219 85.117188 116.574219 84 116.574219 C 83.335938 116.574219 82.671875 116.574219 82.003906 116.578125 C 81.378906 116.582031 80.753906 116.582031 80.128906 116.578125 C 79.898438 116.578125 79.667969 116.578125 79.4375 116.578125 C 79.125 116.582031 78.8125 116.582031 78.496094 116.578125 C 78.40625 116.578125 78.316406 116.582031 78.222656 116.582031 C 77.519531 116.570312 77.230469 116.347656 76.75 115.875 C 76.6875 115.917969 76.621094 115.964844 76.554688 116.007812 C 75.5 116.640625 74.453125 116.585938 73.269531 116.578125 C 73.042969 116.578125 72.820312 116.578125 72.59375 116.578125 C 71.988281 116.582031 71.382812 116.578125 70.773438 116.574219 C 70.140625 116.574219 69.503906 116.574219 68.867188 116.574219 C 67.800781 116.574219 66.734375 116.570312 65.667969 116.566406 C 64.433594 116.5625 63.199219 116.5625 61.96875 116.5625 C 60.78125 116.5625 59.59375 116.5625 58.402344 116.558594 C 57.898438 116.558594 57.394531 116.558594 56.890625 116.558594 C 56.296875 116.558594 55.699219 116.558594 55.105469 116.554688 C 54.890625 116.554688 54.671875 116.550781 54.453125 116.554688 C 54.15625 116.554688 53.859375 116.550781 53.558594 116.550781 C 53.472656 116.550781 53.386719 116.550781 53.296875 116.550781 C 52.761719 116.542969 52.425781 116.453125 52 116.125 C 51.621094 115.554688 51.671875 115.042969 51.75 114.375 C 52.578125 110.929688 55.539062 108.238281 58.4375 106.4375 C 60.03125 105.472656 61.714844 104.675781 63.460938 104.023438 C 63.546875 103.992188 63.628906 103.960938 63.714844 103.925781 C 64.753906 103.554688 65.808594 103.296875 66.875 103 C 66.917969 98.917969 66.957031 94.832031 67 90.625 Z M 67 90.625 "/>
<path style=" stroke:none;fill-rule:nonzero;fill:rgb(99.215686%,61.960787%,16.862746%);fill-opacity:1;" d="M 19.875 50.125 C 20.183594 50.433594 20.300781 50.742188 20.484375 51.140625 C 21.425781 53.105469 22.917969 54.796875 24.625 56.125 C 24.726562 56.207031 24.832031 56.289062 24.9375 56.375 C 26.136719 57.300781 27.570312 58.097656 29 58.625 C 28.820312 59.195312 28.496094 59.550781 28.085938 59.96875 C 27.261719 60.832031 26.546875 61.761719 25.835938 62.71875 C 25.625 63 25.414062 63.277344 25.203125 63.558594 C 22.195312 67.566406 19.570312 71.878906 17.125 76.25 C 17.0625 76.359375 17 76.472656 16.9375 76.585938 C 14.917969 80.207031 13.121094 83.933594 11.472656 87.738281 C 11.273438 88.199219 11.066406 88.660156 10.863281 89.121094 C 9.515625 92.164062 8.378906 95.300781 7.289062 98.445312 C 7.25 98.550781 7.214844 98.65625 7.175781 98.765625 C 7.003906 99.257812 6.835938 99.75 6.667969 100.246094 C 5.675781 103.140625 5.675781 103.140625 4.875 103.625 C 4.421875 103.691406 4.195312 103.664062 3.789062 103.445312 C 2.949219 102.515625 3.027344 101.1875 3 100 C 2.996094 99.882812 2.996094 99.769531 2.992188 99.648438 C 2.921875 96.011719 3.273438 92.453125 3.875 88.875 C 3.898438 88.738281 3.898438 88.738281 3.921875 88.601562 C 5.65625 78.269531 9.128906 68.035156 16.125 55.75 C 16.238281 55.5625 16.351562 55.371094 16.46875 55.183594 C 17.167969 54.035156 17.933594 52.933594 18.710938 51.835938 C 19.113281 51.273438 19.496094 50.699219 19.875 50.125 Z M 19.875 50.125 "/>
<path style=" stroke:none;fill-rule:nonzero;fill:rgb(9.019608%,9.019608%,8.627451%);fill-opacity:1;" d="M 36.414062 40.132812 C 37.101562 40.4375 37.566406 40.980469 37.984375 41.59375 C 38.292969 42.484375 38.359375 43.359375 38.007812 44.242188 C 37.578125 45.070312 36.992188 45.546875 36.125 45.875 C 35.1875 46.144531 34.511719 46.03125 33.667969 45.570312 C 32.949219 45.09375 32.496094 44.449219 32.25 43.625 C 32.113281 42.628906 32.277344 41.816406 32.875 41 C 33.183594 40.703125 33.507812 40.46875 33.875 40.25 C 33.953125 40.203125 34.03125 40.15625 34.109375 40.109375 C 34.796875 39.828125 35.71875 39.910156 36.414062 40.132812 Z M 36.414062 40.132812 "/>
<path style=" stroke:none;fill-rule:nonzero;fill:rgb(90.196079%,50.196081%,9.019608%);fill-opacity:1;" d="M 76.5 92.75 C 76.542969 92.75 76.582031 92.75 76.625 92.75 C 76.625 99.640625 76.625 106.527344 76.625 113.625 C 76.707031 113.625 76.789062 113.625 76.875 113.625 C 76.832031 113.871094 76.792969 114.121094 76.75 114.375 C 76.667969 114.375 76.585938 114.375 76.5 114.375 C 76.5 107.238281 76.5 100.101562 76.5 92.75 Z M 76.5 92.75 "/>
<path style=" stroke:none;fill-rule:nonzero;fill:rgb(91.764706%,58.823532%,25.490198%);fill-opacity:1;" d="M 76.5 110 C 76.542969 110 76.582031 110 76.625 110 C 76.625 111.195312 76.625 112.390625 76.625 113.625 C 76.707031 113.625 76.789062 113.625 76.875 113.625 C 76.832031 113.871094 76.792969 114.121094 76.75 114.375 C 76.667969 114.375 76.585938 114.375 76.5 114.375 C 76.5 112.929688 76.5 111.488281 76.5 110 Z M 76.5 110 "/>
<path style=" stroke:none;fill-rule:nonzero;fill:rgb(71.764708%,44.313726%,20.784314%);fill-opacity:1;" d="M 33.875 59.625 C 34.113281 59.621094 34.355469 59.621094 34.59375 59.617188 C 34.792969 59.613281 34.792969 59.613281 35 59.613281 C 35.316406 59.625 35.574219 59.65625 35.875 59.75 C 35.875 59.832031 35.875 59.914062 35.875 60 C 35.613281 60.011719 35.347656 60.015625 35.085938 60.023438 C 34.941406 60.027344 34.792969 60.03125 34.640625 60.035156 C 34.25 60 34.25 60 34.011719 59.8125 C 33.964844 59.75 33.921875 59.6875 33.875 59.625 Z M 33.875 59.625 "/>
<path style=" stroke:none;fill-rule:nonzero;fill:rgb(67.058825%,35.294119%,10.588235%);fill-opacity:1;" d="M 47.5 22.5 C 47.582031 22.542969 47.664062 22.582031 47.75 22.625 C 47.570312 22.8125 47.386719 23 47.203125 23.1875 C 47.101562 23.292969 47 23.394531 46.894531 23.503906 C 46.625 23.75 46.625 23.75 46.375 23.75 C 46.519531 23.320312 46.664062 23.203125 47.007812 22.914062 C 47.144531 22.796875 47.144531 22.796875 47.285156 22.679688 C 47.355469 22.621094 47.425781 22.5625 47.5 22.5 Z M 47.5 22.5 "/>
</g>
</svg>
